<svg id="svgexport-6_95_" data-name="svgexport-6 (95)" xmlns="http://www.w3.org/2000/svg" width="32" height="32" viewBox="0 0 32 32">
  <g id="Group_1711" data-name="Group 1711" transform="translate(0 0)">
    <path id="Path_797" data-name="Path 797" d="M24,32H8a8,8,0,0,1-8-8V8A8,8,0,0,1,8,0H24a8,8,0,0,1,8,8V24a8,8,0,0,1-8,8" transform="translate(0 0)" fill="#0f9dff"/>
    <path id="Path_798" data-name="Path 798" d="M15,9h9A4.5,4.5,0,0,0,24.46.023C24.307.014,24.155,0,24,0H8A8,8,0,0,0,0,8V24A15,15,0,0,1,15,9" transform="translate(0 0)" fill="#00b7ff"/>
    <path id="Path_799" data-name="Path 799" d="M40,24a8,8,0,1,0,8,8V16a8,8,0,0,1-8,8" transform="translate(-16 -8)" fill="#1d83ff"/>
  </g>
  <path id="Path_800" data-name="Path 800" d="M19.119,32A11.616,11.616,0,0,0,30.783,19.8a8.262,8.262,0,0,0,1.529-1.432.249.249,0,0,0-.271-.393,8.443,8.443,0,0,1-1.029.26.125.125,0,0,1-.1-.222A4.115,4.115,0,0,0,32,16.71a.246.246,0,0,0-.329-.331,8.408,8.408,0,0,1-2,.66,4.1,4.1,0,0,0-7.1,2.808,4.368,4.368,0,0,0,.074.78.125.125,0,0,1-.131.148,11.637,11.637,0,0,1-7.778-3.687.5.5,0,0,0-.843.182,3.985,3.985,0,0,0,1.247,4.448.122.122,0,0,1-.093.216,3.958,3.958,0,0,1-.691-.158.494.494,0,0,0-.484.1.474.474,0,0,0-.157.467c.869,3.346,3.222,2.92,3.222,3.173,0,.171-.465.171-1.09.173a.493.493,0,0,0-.435.72,4.139,4.139,0,0,0,3.159,2.037.124.124,0,0,1,.063.224,8.186,8.186,0,0,1-3.853,1.5.484.484,0,0,0-.155.927A11.473,11.473,0,0,0,19.119,32Z" transform="translate(-6.831 -7.872)" fill="#fff"/>
</svg>
